<?xml version="1.0" encoding="UTF-8" standalone="no"?>
<!-- Generator: Adobe Illustrator 14.0.0, SVG Export Plug-In . SVG Version: 6.00 Build 43363)  -->

<svg
   version="1.0"
   id="Ebene_1"
   x="0px"
   y="0px"
   width="947px"
   height="947px"
   viewBox="0 0 947 947"
   enable-background="new 0 0 947 947"
   xml:space="preserve"
   sodipodi:docname="Lua-Logo.svg"
   inkscape:version="1.2.1 (9c6d41e410, 2022-07-14)"
   xmlns:inkscape="http://www.inkscape.org/namespaces/inkscape"
   xmlns:sodipodi="http://sodipodi.sourceforge.net/DTD/sodipodi-0.dtd"
   xmlns="http://www.w3.org/2000/svg"
   xmlns:svg="http://www.w3.org/2000/svg"><defs
   id="defs23"><linearGradient
     id="bg"
     x1="1"
     x2="47"
     gradientTransform="rotate(-90,24,24)"
     gradientUnits="userSpaceOnUse"><stop
       style="stop-color:#1e94ca"
       offset="0"
       id="stop306" /><stop
       style="stop-color:#21a1db"
       offset="1"
       id="stop308" /></linearGradient></defs><sodipodi:namedview
   id="namedview21"
   pagecolor="#ffffff"
   bordercolor="#000000"
   borderopacity="0.25"
   inkscape:showpageshadow="2"
   inkscape:pageopacity="0.0"
   inkscape:pagecheckerboard="0"
   inkscape:deskcolor="#d1d1d1"
   showgrid="false"
   inkscape:zoom="0.45142555"
   inkscape:cx="542.72515"
   inkscape:cy="423.10409"
   inkscape:window-width="1920"
   inkscape:window-height="1009"
   inkscape:window-x="-8"
   inkscape:window-y="-8"
   inkscape:window-maximized="1"
   inkscape:current-layer="Ebene_1" />
<g
   id="g18">
	
	<path
   fill="#FFFFFF"
   d="M729.5,323.6c0-58.5-47.5-106-106-106s-106,47.5-106,106c0,58.5,47.5,106,106,106S729.5,382.1,729.5,323.6"
   id="path4" />
	<path
   fill="#000080"
   d="M941.5,111.5c0-58.5-47.5-106-106-106s-106,47.5-106,106c0,58.5,47.5,106,106,106S941.5,170.1,941.5,111.5"
   id="path6"
   style="fill:#b3b3b3" />
	<g
   id="g14">
		<path
   fill="#FFFFFF"
   d="M258.1,627.8h117.3v26.7H227.8V417h30.3V627.8z"
   id="path8" />
		<path
   fill="#FFFFFF"
   d="M515.5,654.5v-23.8c-16,22.5-31.9,31.3-57,31.3c-33.2,0-54.4-18.2-54.4-46.6V483.8h27v120.9    c0,20.5,13.7,33.6,35.2,33.6c28.3,0,46.6-22.8,46.6-57.7v-96.8h27v170.7H515.5z"
   id="path10" />
		<path
   fill="#FFFFFF"
   d="M738.4,659.1c-8.8,2.3-13,2.9-18.6,2.9c-17.6,0-26.1-7.8-28-25.1c-19.2,17.6-36.5,25.1-58,25.1    c-34.5,0-56-19.5-56-50.5c0-22.2,10.1-37.5,30-45.6c10.4-4.2,16.3-5.5,54.7-10.4c21.5-2.6,28.3-7.5,28.3-18.9v-7.2    c0-16.3-13.7-25.4-38.1-25.4c-25.4,0-37.8,9.4-40.1,30.3h-27.4c0.7-16.9,3.9-26.7,11.7-35.5c11.4-12.7,31.9-19.9,56.7-19.9    c42,0,64.2,16.3,64.2,46.6v100.4c0,8.5,5.2,13.4,14.7,13.4c1.6,0,2.9,0,5.9-0.7V659.1z M690.8,570.1c-9.1,4.2-15,5.5-43.7,9.4    c-29,4.2-41.1,13.4-41.1,31.3c0,17.3,12.4,27.4,33.6,27.4c16,0,29.3-5.2,40.4-15.3c8.1-7.5,10.8-13,10.8-22.2V570.1z"
   id="path12" />
	</g>
	<path
   fill="none"
   stroke="#808080"
   stroke-width="10.8612"
   stroke-miterlimit="10"
   stroke-dasharray="40.8475"
   d="M890.6,261   c33.5,65.8,51,138.6,51,212.5c0,258.4-209.7,468.1-468.1,468.1S5.4,731.9,5.4,473.5C5.4,215.1,215.1,5.4,473.5,5.4   c83.1,0,164.6,22.1,236.2,63.9"
   id="path16" />
</g>
<g
   id="g344"
   transform="matrix(15.517244,0,0,15.517244,97.214592,97.206833)"><path
     d="M 24,1 C 21.73,1 19.538,1.334 17.467,1.947 19.001,3 16.217,3.967 14.262,3.162 6.429,6.829 1,14.779 1,24 1,31.505 4.595,38.169 10.156,42.367 16,45 32,45 39.84,40.668 c 2.366,-2.249 4.253,-4.995 5.494,-8.07 v -0.002 c 0.234,-1.595 0.667,-3.594 1.23,-4.15 h 0.002 C 46.848,27.008 47,25.523 47,24.003 47,23.885 46.994,23.769 46.992,23.651 H 46.99 C 45.998,23.002 46.434,22.469 46.836,21.303 46.651,19.726 46.309,18.198 45.822,16.735 43.996,15.997 37.999,9.001 34.722,3.655 31.519,1.963 27.872,1.001 23.997,1.001 Z"
     style="fill:url(#bg)"
     id="path319" /><path
     d="m 17.1,2.906 -0.844,0.25 -0.977,0.066 -0.594,0.434 -0.781,-0.031 0.066,0.5 1.121,-0.031 0.41,1.094 0.15,0.598 -0.621,0.346 -0.254,0.465 0.189,1.063 0.754,0.125 0.719,-0.688 0.625,-0.656 0.965,-0.25 1.227,-0.594 0.719,-0.875 1.031,-1.254 0.719,-0.189 -0.031,-0.275 H 20.572 L 17.103,2.908 Z m 9.957,0.48 C 27.002,3.406 25.53,3.409 25.53,3.409 l -0.379,0.098 0.5,0.598 0.531,-0.5 0.344,0.219 0.5,-0.25 c 0,0 0.09,-0.211 0.031,-0.187 z m 6,0.461 -0.375,0.004 -0.469,0.063 -0.406,0.25 -0.469,0.35 -0.277,0.5 0.434,0.438 L 31.87,5.483 32.026,5.229 31.651,4.915 31.87,4.727 31.901,4.575 32.37,4.262 c 0,0 0.609,0.008 0.656,0 0.051,-0.012 0.188,-0.191 0.188,-0.191 z M 36.121,4.454 35.9,4.6 29.243,6.959 28.93,6.736 28.774,6.486 28.838,6.232 29.526,6.267 29.842,6.142 29.221,5.828 28.346,5.514 27.467,5.358 l -0.941,0.191 -0.969,0.779 -0.436,0.439 -0.654,0.719 -0.25,0.031 -0.096,0.344 0.125,0.344 c 0,0 0.133,0.156 0.156,0.156 0.02,0 0.25,-0.125 0.25,-0.125 0,0 0.027,-0.117 0.156,-0.156 0.133,-0.039 0.25,-0.063 0.25,-0.063 l 0.188,0.375 0.225,0.313 0.09,0.25 c 0,0 0.363,-0.223 0.379,-0.25 0.008,-0.031 0.031,-0.41 0.031,-0.41 l 0.271,-0.188 c 0,0 0.074,-0.133 0.066,-0.156 C 26.296,7.931 26.12,7.732 26.12,7.732 L 25.964,7.669 26.027,7.353 c 0,0 0.125,-0.051 0.125,-0.094 0,-0.039 0.191,-0.189 0.191,-0.189 l 0.219,-0.275 0.156,-0.189 0.219,-0.156 0.254,0.189 v 0.125 l -0.223,0.25 -0.066,0.25 V 7.608 L 24.766,8.681 23.702,9.43 c 0,0 -1.888,0.71586 -1.154,2.003 0,0 0.119,0.223 0.154,0.223 0.031,0 0.092,0.219 0.092,0.219 l -0.189,0.25 h -0.094 l -0.656,0.125 -0.125,-0.281 -0.434,0.438 -0.191,0.721 v 0.598 l 0.754,0.406 0.594,-0.221 0.6,-1.064 0.529,-0.652 0.967,-0.156 0.219,-0.188 1.098,1.281 0.121,0.438 0.313,-0.156 -0.09,-0.375 h 0.188 l -0.125,-0.254 -1.063,-1 0.094,-0.188 0.344,-0.031 0.75,0.75 0.375,0.441 v 0.688 l 0.191,0.125 0.375,0.375 0.277,-0.094 -0.152,-0.566 0.094,-0.344 0.188,-0.219 0.439,0.156 0.156,0.063 -0.031,-0.5 0.25,-0.469 0.156,-0.689 0.563,0.096 0.094,0.313 0.219,0.156 0.254,-0.219 -0.156,-0.346 h 0.656 l -0.223,0.375 0.438,0.375 0.375,0.189 0.219,0.438 -0.5,0.121 -0.719,-0.156 h -0.621 l -0.598,0.316 -0.125,0.188 -0.434,0.094 0.188,0.469 0.344,0.406 0.625,-0.219 0.156,0.277 0.277,-0.219 0.375,0.063 0.035,0.41 -0.125,0.777 -0.344,-0.031 -0.41,-0.063 -0.188,0.465 -1.375,-0.25 -0.25,-0.316 -0.316,0.281 -2.094,-0.558 v -0.941 l -0.564,0.031 -0.029,0.313 -1.375,-0.063 -0.439,0.402 -0.844,0.031 -2.317,6.379 0.219,0.625 0.754,0.906 0.434,0.375 0.441,0.094 0.09,-0.375 h 1.563 l 0.41,-0.188 0.5,0.063 0.152,0.313 0.527,0.031 2.015,9.503 0.063,0.594 0.094,0.688 0.346,-0.344 0.875,-0.09 H 28.5 l 0.971,-1.5 0.063,-0.594 0.656,-0.656 0.031,-0.75 0.344,-0.754 0.813,-0.777 v -0.875 l -0.191,-0.813 -0.121,-1.125 0.594,-0.939 1.064,-1.313 0.41,-0.406 0.15,-0.531 0.254,-0.469 0.064,-0.691 h -0.594 l -0.281,0.281 -0.564,-0.156 -0.344,-0.563 -0.281,-0.563 -0.654,-0.5 -0.152,-0.813 -0.281,-0.475 -0.313,-0.594 -0.406,-0.719 -0.094,-0.469 0.438,-0.063 1.535,2.907 0.434,0.723 0.602,0.6 0.535,-0.5 0.594,-0.156 0.434,-0.531 0.6,-0.344 0.344,-0.594 0.031,-0.5 -0.281,-0.316 -0.375,-0.438 -0.25,0.154 -0.156,0.254 -0.406,-0.188 -0.125,-0.313 -0.281,-0.41 -0.434,-0.406 v -0.813 l 0.277,0.531 0.344,0.535 0.598,0.344 0.406,-0.094 0.25,0.281 1.785,-0.035 -0.035,0.035 0.566,0.5 0.406,0.563 0.125,0.277 h 0.275 l 0.096,-0.311 0.094,0.467 0.156,0.844 0.34,0.813 0.189,0.688 0.277,0.656 0.219,0.277 0.314,-0.188 0.094,-0.314 0.125,-0.775 -0.035,-0.689 0.254,-0.316 c 0,0 0.265,-0.359 0.313,-0.375 0.043,-0.012 0.621,-0.65 0.621,-0.65 l 0.281,-0.35 0.313,-0.188 0.375,-0.219 h 0.156 l 0.063,0.344 0.156,0.406 0.5,0.652 v 0.25 l 0.094,0.281 0.344,-0.156 -0.033,-0.375 0.313,0.066 0.066,0.344 -0.035,0.531 0.094,0.375 0.281,0.064 0.09,-0.314 0.344,0.219 0.066,0.316 0.309,0.469 0.316,0.344 0.219,0.191 0.535,-0.469 0.219,-0.441 -0.094,-0.5 -0.09,-0.656 -0.604,-0.563 -0.09,-0.566 0.25,-0.398 c 0,0 0.16,-0.32 0.316,-0.156 0.148,0.168 0.223,0.188 0.152,0.375 -0.063,0.184 -0.188,0.598 -0.188,0.598 l 0.375,0.156 0.156,-0.531 -0.156,-0.379 0.203,-0.084 C 44.703,12.343 41.031,7.501 36.127,4.453 m -24.86,0.393 c -0.154,0.103 -0.305,0.21 -0.457,0.316 l -0.029,0.072 0.156,0.344 0.563,-0.064 0.25,0.469 -0.5,0.531 -0.563,0.063 0.5,0.223 0.531,0.465 0.525,0.125 0.191,-0.719 0.035,-0.438 0.621,0.094 c 0,0 -0.191,0.313 -0.094,0.313 0.098,0 0.469,-0.406 0.469,-0.406 L 12.399,5.136 c 0,0 -0.434,-0.344 -0.563,-0.25 -0.129,0.09 -0.469,0.063 -0.469,0.063 z M 10.617,5.67 10.183,6.17 9.863,5.863 C 9.433,6.198 9.013,6.545 8.609,6.91 8.98,7.003 9.471,7.203 9.558,7.142 9.687,7.048 10.183,6.267 10.183,6.267 Z m 9.1,0.727 -0.121,0.406 c 0.449,0.348 0.621,0.344 0.621,0.344 L 20.742,7.022 21.092,6.678 20.867,6.397 Z M 10.85,7.17 c 0,0 -0.432,0.25 -0.85,0.406 C 9.586,7.732 9.691,8.045 9.691,8.045 L 9.656,8.889 8.968,9.452 8.534,10.108 c 0,0 -0.281,-0.188 -0.281,-0.313 C 8.253,9.67 8.19,9.326 8.19,9.326 L 7.471,8.763 c 0,0 -0.22,-0.17 -0.398,-0.328 -2.12,2.305 -3.77,5.05 -4.813,8.07 L 2.912,16.05 3.478,15.859 h 0.809 l 1.125,-0.25 0.406,0.531 -0.063,0.625 0.469,0.406 0.063,-0.441 c 0,0 -0.023,-0.719 -0.094,-0.906 C 6.13,15.636 6.759,15.199 6.759,15.199 L 7.255,14.586 7.853,13.859 8.134,13.296 9.072,12.8 9.697,12.109 c 0,0 0.934,-0.148 1.121,-0.254 0.191,-0.09 0.066,-0.434 -0.125,-0.75 -0.191,-0.313 0.094,-0.625 0.094,-0.625 l 0.719,-0.434 0.625,0.121 0.066,0.754 c 0,0 0.59,0.563 0.781,0.465 0.188,-0.09 0.271,-0.406 0.271,-0.406 L 12.936,10.167 13.127,9.356 12.283,9.477 V 8.102 l -0.254,0.254 -0.656,0.031 -0.09,-0.688 z m 11.643,1.01 -0.25,0.219 c -0.066,0.305 -0.15,0.621 -0.15,0.621 l 0.469,0.223 0.063,0.277 -0.25,0.254 0.719,-0.157 -0.098,-0.656 -0.344,-0.375 z m -0.775,1.184 -0.281,0.469 0.375,0.156 0.156,-0.281 z m -15.445,1.092 0.006,0.006 0.656,0.277 0.434,0.566 0.281,0.434 c 0,0 -0.25,0.844 -0.313,1 -0.063,0.156 -0.25,-0.313 -0.25,-0.313 L 6.931,11.612 6.4,11.837 5.99,12.802 6.084,11.991 6.209,11.427 5.555,11.177 6.118,10.646 Z m 26.383,0.756 c 0.137,-0.043 0.375,0.154 0.375,0.154 l -0.25,0.221 0.09,0.313 0.281,0.75 0.281,0.469 0.375,0.594 -0.406,0.191 -0.531,-0.344 -0.223,-0.656 c 0,0 -0.303,-0.406 -0.436,-0.469 -0.137,-0.066 -0.254,-0.281 -0.254,-0.281 l 0.125,-0.531 c 0,0 0.431,-0.359 0.564,-0.406 z m -7.906,1.188 -0.375,0.719 0.281,0.281 0.25,-0.223 0.031,-0.309 z m -1.252,0.75 v 0.188 l 0.156,-0.031 z m 2.156,0.469 -0.188,0.064 0.309,0.531 0.281,-0.221 z M 2.203,16.683 c -0.299,0.89 -0.549,1.803 -0.738,2.738 l 0.523,0.287 0.5,-0.066 0.719,0.344 1.094,0.598 0.156,0.725 0.875,0.84 0.5,-0.375 0.41,0.316 L 6.176,21.365 5.399,21.556 5.145,20.65 5.055,20.24 4.367,19.619 v -0.438 l 0.531,-0.566 -0.348,-0.4 -0.564,0.09 -0.848,0.844 -0.688,-0.09 c 0,0 -0.313,-0.531 -0.379,-0.656 C 2.008,18.278 2.262,17.84 2.262,17.84 Z m 3.322,1.121 v 0.004 l -0.309,0.156 0.531,0.279 0.594,0.121 0.344,0.469 0.406,-0.25 -0.063,-0.279 -0.689,-0.5 z m 1.693,3.094 -0.006,0.004 -0.816,0.441 -0.09,0.9 0.245,5.437 1.313,1.313 c 0,0 1.091,8.511 1.224,8.134 l 0.875,1.375 1.221,0.525 -0.5,-0.598 -0.25,-0.688 0.25,-0.719 -0.656,-0.344 c 0,0 0.434,-0.285 0.5,-0.375 0.066,-0.09 -0.09,-0.469 -0.09,-0.469 l -0.191,-0.467 0.496,-0.654 0.781,-0.189 0.125,-0.598 -0.469,-0.219 0.188,-0.5 0.75,-0.094 0.656,-1.598 0.469,-1.094 0.977,-0.471 c 0,0 0.309,-0.928 0.309,-1.064 0,-0.129 0.094,-1.531 0.094,-1.531 l 0.75,-1.023 0.094,-0.691 -0.563,-0.344 -0.469,-0.566 -0.852,0.066 -1.344,-0.781 -0.27,-0.656 c 0,0 -0.48,-0.813 -0.566,-0.813 -0.086,0 -0.652,0.035 -0.652,0.035 L 10.22,22.051 9.876,21.395 8.532,21.114 8.094,20.895 Z m 36.438,0.492 c 0.113,0.129 0.813,2.219 0.906,2.219 0.09,0 0.625,0.066 0.625,0.066 l -0.281,-0.844 z m -3.594,0.066 -0.316,0.406 0.156,0.598 0.344,-0.375 -0.063,-0.473 z m 3.49,1.156 -0.436,0.066 1.996,3 0.531,0.594 1.246,0.061 c 0.012,-0.116 0.017,-0.233 0.027,-0.35 l -0.025,-0.018 -1.25,-0.346 -0.314,-1.154 -0.688,-0.564 -1.094,-1.281 z m 3.426,0.211 -0.299,0.164 c 0,0.094 -0.725,0.691 -0.725,0.691 l 0.191,0.625 0.41,0.465 0.273,0.688 0.135,-0.088 c 0.027,-0.453 0.043,-0.908 0.043,-1.367 0,-0.395 -0.01,-0.788 -0.029,-1.178 z M 33.05,27.487 v 0.439 c -0.02,0.066 -0.406,0.375 -0.406,0.375 l -0.469,0.219 -0.344,0.281 0.254,0.344 0.156,0.156 -0.41,0.344 v 0.563 l 0.156,0.594 0.344,0.094 0.41,-0.625 0.25,-0.406 -0.063,-0.5 0.375,-0.594 0.125,-0.281 v -0.563 l -0.096,-0.438 z m -20.475,9.473 -0.215,0.152 -0.094,0.031 0.5,0.25 z m -0.848,0.184 0.002,0.004 0.002,-0.004 z m 0.002,0.004 -0.217,0.496 0.438,-0.094 z m 1.502,4.121 -0.469,0.719 -0.875,0.406 0.5,0.625 1.998,0.373 c 0,0 -0.652,-1.32 -0.652,-1.5 0,-0.176 -0.5,-0.621 -0.5,-0.621 z"
     style="opacity:0.1"
     id="path321" /><path
     d="m 17.475,1.943 c -1.152,0.34 -2.267,0.767 -3.336,1.275 l 0.363,0.969 0.15,0.598 -0.621,0.346 -0.254,0.465 0.189,1.063 L 14.72,6.784 15.439,6.096 16.064,5.44 17.029,5.19 18.256,4.596 18.975,3.721 20.006,2.467 20.725,2.278 20.694,2.003 H 19.573 L 17.475,1.944 Z m 8.582,0.443 C 26.002,2.406 24.53,2.409 24.53,2.409 l -0.379,0.098 0.5,0.598 0.531,-0.5 0.344,0.219 0.5,-0.25 c 0,0 0.09,-0.211 0.031,-0.188 z m 6,0.461 -0.375,0.004 -0.469,0.063 -0.406,0.25 -0.469,0.35 -0.277,0.5 0.434,0.438 L 30.87,4.483 31.026,4.229 30.651,3.915 30.87,3.727 30.901,3.575 31.37,3.262 c 0,0 0.609,0.008 0.656,0 0.051,-0.012 0.188,-0.191 0.188,-0.191 L 32.058,2.848 Z m 2.717,0.83 -0.498,0.299 -0.531,0.438 0.063,0.189 -0.277,0.031 V 4.638 L 29.447,5.318 29.463,5.306 28.244,5.96 27.931,5.737 27.775,5.487 27.839,5.233 28.527,5.268 28.843,5.143 28.222,4.829 27.347,4.515 26.468,4.359 25.527,4.55 l -0.969,0.779 -0.436,0.439 -0.654,0.719 -0.25,0.031 -0.096,0.344 0.125,0.344 c 0,0 0.133,0.156 0.156,0.156 0.02,0 0.25,-0.125 0.25,-0.125 0,0 0.027,-0.117 0.156,-0.156 0.133,-0.039 0.25,-0.063 0.25,-0.063 l 0.188,0.375 0.225,0.313 0.09,0.25 c 0,0 0.363,-0.223 0.379,-0.25 0.008,-0.031 0.031,-0.41 0.031,-0.41 l 0.271,-0.188 c 0,0 0.074,-0.133 0.066,-0.156 C 25.297,6.932 25.121,6.733 25.121,6.733 L 24.965,6.67 25.028,6.354 c 0,0 0.125,-0.051 0.125,-0.094 0,-0.039 0.191,-0.189 0.191,-0.189 l 0.219,-0.275 0.156,-0.189 0.219,-0.156 0.254,0.189 v 0.125 l -0.223,0.25 -0.066,0.25 v 0.344 l 0.191,0.156 0.344,-0.031 0.314,-0.063 0.279,0.154 -0.064,0.221 c 0,0 -0.195,0.188 -0.25,0.219 -0.059,0.031 -0.41,-0.063 -0.5,-0.031 -0.09,0.031 -0.314,0.316 -0.314,0.316 0,0 -0.023,0.249 0,0.313 0.012,0.023 -0.004,0.071 -0.012,0.129 L 25.866,8.01 25.487,8.289 h -0.025 l -0.25,-0.094 c 0,0 -0.158,0.008 -0.225,0.066 -0.063,0.051 -0.12,0.102 -0.313,0.121 -0.191,0.02 -0.563,0 -0.598,0 h -0.219 l 0.031,-0.227 0.156,-0.25 -0.277,-0.223 c 0,0 -0.184,0.23 -0.191,0.281 -0.004,0.055 0.125,0.279 0.125,0.279 0,0 -0.059,0.182 -0.09,0.221 -0.035,0.039 -0.313,0.125 -0.313,0.125 L 22.859,8.367 c 0,0 -0.18,-0.038 -0.156,0.064 0.027,0.102 0.225,0.195 0.225,0.281 0,0.082 -0.125,0.275 -0.125,0.275 l -0.156,0.189 -0.25,0.254 -0.344,0.09 c 0,0 -0.251,0.07 -0.314,0.094 -0.066,0.023 -0.254,0.066 -0.254,0.066 l -0.25,0.031 -0.156,0.223 0.281,0.191 0.189,0.309 c 0,0 0.119,0.223 0.154,0.223 0.031,0 0.092,0.219 0.092,0.219 l -0.189,0.25 h -0.094 l -0.656,0.125 -0.125,-0.281 -0.434,0.438 -0.191,0.721 v 0.598 l 0.754,0.406 0.594,-0.221 0.6,-1.064 0.529,-0.652 0.967,-0.156 0.219,-0.188 1.098,1.281 0.121,0.438 0.313,-0.156 -0.09,-0.375 h 0.188 l -0.125,-0.254 -1.063,-1 0.094,-0.188 0.344,-0.031 0.75,0.75 0.375,0.441 v 0.688 l 0.191,0.125 0.375,0.375 0.277,-0.094 -0.152,-0.566 0.094,-0.344 0.188,-0.219 0.439,0.156 0.156,0.063 -0.031,-0.5 0.25,-0.469 0.156,-0.689 0.563,0.096 0.094,0.313 0.219,0.156 0.254,-0.219 -0.156,-0.346 h 0.656 l -0.223,0.375 0.438,0.375 0.375,0.189 0.219,0.438 -0.5,0.121 -0.719,-0.156 h -0.621 l -0.598,0.316 -0.125,0.188 -0.434,0.094 0.188,0.469 0.344,0.406 0.625,-0.219 0.156,0.277 0.277,-0.219 0.375,0.063 0.035,0.41 -0.125,0.777 -0.344,-0.031 -0.41,-0.063 -0.188,0.465 -1.375,-0.25 -0.25,-0.316 -0.316,0.281 -0.344,0.469 -0.875,-0.5 -0.875,-0.527 v -0.941 l -0.564,0.031 -0.029,0.313 -1.375,-0.063 -0.439,0.402 -0.844,0.031 -0.566,0.5 -0.344,0.969 -0.875,0.691 -0.625,0.844 -0.031,1.625 -0.188,0.5 -0.063,0.598 0.375,0.652 0.219,0.625 0.754,0.906 0.434,0.375 0.441,0.094 0.09,-0.375 h 1.563 l 0.41,-0.188 0.5,0.063 0.152,0.313 0.527,0.031 0.348,0.25 v 0.531 l -0.121,0.438 -0.125,0.344 0.313,0.566 0.406,0.469 0.189,1.188 0.029,0.777 -0.275,0.656 -0.031,0.625 0.219,1.156 0.191,0.188 0.271,1.094 0.035,0.471 0.566,0.75 0.063,0.594 0.094,0.688 0.346,-0.344 0.875,-0.09 h 0.529 l 0.971,-1.5 0.063,-0.594 0.656,-0.656 0.031,-0.75 0.344,-0.754 0.813,-0.777 v -0.875 l -0.191,-0.813 -0.121,-1.125 0.594,-0.939 1.064,-1.313 0.41,-0.406 0.15,-0.531 0.254,-0.469 0.064,-0.691 h -0.594 l -0.281,0.281 -0.564,-0.156 -0.344,-0.563 -0.281,-0.563 -0.654,-0.5 -0.152,-0.813 -0.281,-0.475 -0.313,-0.594 -0.406,-0.719 -0.094,-0.469 0.438,-0.063 0.25,0.531 0.5,0.938 0.375,0.688 0.41,0.75 0.434,0.723 0.602,0.6 0.535,-0.5 0.594,-0.156 0.434,-0.531 0.6,-0.344 0.344,-0.594 0.031,-0.5 -0.281,-0.316 -0.375,-0.438 -0.25,0.154 -0.156,0.254 -0.406,-0.188 -0.125,-0.313 -0.281,-0.41 -0.434,-0.406 v -0.813 l 0.277,0.531 0.344,0.535 0.598,0.344 0.406,-0.094 0.25,0.281 1.785,-0.035 -0.035,0.035 0.566,0.5 0.406,0.563 0.125,0.277 h 0.275 l 0.096,-0.311 0.094,0.467 0.156,0.844 0.34,0.813 0.189,0.688 0.277,0.656 0.219,0.277 0.314,-0.188 0.094,-0.314 0.125,-0.775 -0.035,-0.689 0.254,-0.316 c 0,0 0.265,-0.359 0.313,-0.375 0.043,-0.012 0.621,-0.65 0.621,-0.65 l 0.281,-0.35 0.313,-0.188 0.375,-0.219 h 0.156 l 0.063,0.344 0.156,0.406 0.5,0.652 v 0.25 l 0.094,0.281 0.344,-0.156 -0.033,-0.375 0.313,0.066 0.066,0.344 -0.035,0.531 0.094,0.375 0.281,0.064 0.09,-0.314 0.344,0.219 0.066,0.316 0.309,0.469 0.316,0.344 0.219,0.191 0.535,-0.469 0.219,-0.441 -0.094,-0.5 -0.09,-0.656 -0.604,-0.563 -0.09,-0.566 0.25,-0.398 c 0,0 0.16,-0.32 0.316,-0.156 0.148,0.168 0.223,0.188 0.152,0.375 -0.063,0.184 -0.188,0.598 -0.188,0.598 l 0.375,0.156 0.156,-0.531 -0.156,-0.379 0.375,-0.156 0.441,-0.221 C 43.97,11.116 39.966,6.432 34.781,3.672 Z M 29.461,5.306 29.457,5.312 33.547,4.617 33.52,4.461 33.204,4.023 32.55,3.96 c 0,0 0.154,0.664 0.154,0.75 0,0.082 -0.438,0.025 -0.438,0.025 l -0.75,0.035 c 0,0 -1.086,0.25 -1.219,0.25 -0.133,0 -0.762,0.262 -0.813,0.281 L 29.461,5.305 Z M 11.773,4.523 c -0.6,0.377 -1.182,0.78 -1.742,1.209 l 0.154,0.068 0.531,0.465 0.525,0.125 0.191,-0.719 0.035,-0.438 0.621,0.094 c 0,0 -0.191,0.313 -0.094,0.313 0.098,0 0.469,-0.406 0.469,-0.406 L 11.772,4.523 Z m 6.937,0.875 -0.121,0.406 c 0.449,0.348 0.621,0.344 0.621,0.344 L 19.735,6.023 20.085,5.679 19.86,5.398 Z M 9.843,6.171 c 0,0 -0.432,0.25 -0.85,0.406 C 8.991,6.579 8.989,6.579 8.987,6.581 8.896,6.66 8.804,6.737 8.714,6.817 8.661,6.937 8.685,7.046 8.685,7.046 L 8.65,7.89 7.962,8.453 7.528,9.109 c 0,0 -0.281,-0.188 -0.281,-0.313 0,-0.125 -0.063,-0.469 -0.063,-0.469 L 7.176,8.321 C 6.746,8.783 6.335,9.263 5.944,9.759 l 0.416,0.545 0.281,0.434 c 0,0 -0.249,0.844 -0.313,1 -0.063,0.156 -0.25,-0.313 -0.25,-0.313 l -0.156,-0.814 -0.531,0.225 -0.41,0.965 0.094,-0.811 0.02,-0.086 c -0.858,1.237 -1.6,2.56 -2.205,3.957 h 0.393 l 1.125,-0.25 0.406,0.531 -0.063,0.625 0.469,0.406 0.063,-0.441 c 0,0 -0.023,-0.719 -0.094,-0.906 -0.063,-0.188 0.566,-0.625 0.566,-0.625 L 6.251,13.588 6.849,12.861 7.13,12.298 8.068,11.802 8.693,11.111 c 0,0 0.934,-0.148 1.121,-0.254 0.191,-0.09 0.066,-0.434 -0.125,-0.75 C 9.498,9.794 9.783,9.482 9.783,9.482 l 0.719,-0.434 0.625,0.121 0.066,0.754 c 0,0 0.59,0.563 0.781,0.465 0.188,-0.09 0.271,-0.406 0.271,-0.406 L 11.932,9.169 12.123,8.358 11.279,8.479 V 7.104 L 11.025,7.358 10.369,7.389 10.279,6.701 9.841,6.17 Z m 11.643,1.01 -0.25,0.219 c -0.066,0.305 -0.15,0.621 -0.15,0.621 l 0.469,0.223 0.063,0.277 -0.25,0.254 -0.219,0.375 0.152,0.156 0.563,-0.094 0.5,-0.219 L 22.087,8.618 21.989,7.962 21.645,7.587 21.487,7.181 Z M 20.711,8.365 20.43,8.834 20.805,8.99 20.961,8.709 Z m 10.938,1.848 c 0.137,-0.043 0.375,0.154 0.375,0.154 l -0.25,0.221 0.09,0.313 0.281,0.75 0.281,0.469 0.375,0.594 -0.406,0.191 -0.531,-0.344 -0.223,-0.656 c 0,0 -0.303,-0.406 -0.436,-0.469 -0.137,-0.066 -0.254,-0.281 -0.254,-0.281 l 0.125,-0.531 c 0,0 0.431,-0.359 0.564,-0.406 l 0.008,-0.004 z m -7.906,1.188 -0.375,0.719 0.281,0.281 0.25,-0.223 0.031,-0.309 -0.188,-0.469 z m -1.252,0.75 v 0.188 l 0.156,-0.031 -0.156,-0.156 z m 2.156,0.469 -0.188,0.064 0.309,0.531 0.281,-0.221 -0.402,-0.375 z m -20.13,4.186 v 0.004 l -0.309,0.156 0.531,0.279 0.594,0.121 0.344,0.469 0.406,-0.25 -0.063,-0.279 -0.689,-0.5 z M 3.542,17.216 2.978,17.306 2.13,18.15 1.767,18.103 C 1.714,18.304 1.666,18.507 1.619,18.71 l 0.58,0.277 1.094,0.598 0.156,0.725 0.875,0.84 0.5,-0.375 0.41,0.316 L 5.168,20.366 4.391,20.557 4.137,19.651 4.047,19.241 3.359,18.62 V 18.182 L 3.89,17.616 Z m 2.668,2.684 -0.006,0.004 -0.816,0.441 -0.09,0.9 -0.188,1 -0.563,0.75 0.029,1.125 0.467,1.156 0.5,1.406 1.313,1.313 0.063,0.75 0.094,3.385 0.469,1.9 c 0,0 0.285,1.103 0.223,1.189 -0.066,0.09 0.375,0.91 0.375,0.91 l 0.875,1.375 1.221,0.525 -0.5,-0.598 -0.25,-0.688 0.25,-0.719 L 9.02,35.68 c 0,0 0.434,-0.285 0.5,-0.375 0.066,-0.09 -0.09,-0.469 -0.09,-0.469 l -0.191,-0.467 0.496,-0.654 0.781,-0.189 0.125,-0.598 -0.469,-0.219 0.188,-0.5 0.75,-0.094 0.656,-1.598 0.469,-1.094 0.977,-0.471 c 0,0 0.309,-0.928 0.309,-1.064 0,-0.129 0.094,-1.531 0.094,-1.531 l 0.75,-1.023 0.094,-0.691 -0.563,-0.344 -0.469,-0.566 -0.852,0.066 -1.344,-0.781 -0.27,-0.656 c 0,0 -0.48,-0.813 -0.566,-0.813 -0.086,0 -0.652,0.035 -0.652,0.035 L 9.212,21.053 8.868,20.397 7.524,20.116 7.086,19.897 H 6.211 Z m 36.438,0.492 c 0.113,0.129 0.813,2.219 0.906,2.219 0.09,0 0.625,0.066 0.625,0.066 l -0.281,-0.844 z m -3.594,0.066 -0.316,0.406 0.156,0.598 0.344,-0.375 -0.063,-0.473 z m 7.787,0.885 -1.17,0.646 c 0,0.094 -0.725,0.691 -0.725,0.691 l 0.191,0.625 0.41,0.465 0.273,0.688 1.17,-0.76 c -0.01,-0.796 -0.061,-1.581 -0.15,-2.355 z m -4.297,0.271 -0.436,0.066 1.996,3 0.531,0.594 1.313,0.064 0.814,0.254 -0.879,-0.625 -1.25,-0.346 -0.314,-1.154 -0.688,-0.564 -1.094,-1.281 0.006,-0.008 z m -10.502,4.875 v 0.439 c -0.02,0.066 -0.406,0.375 -0.406,0.375 l -0.469,0.219 -0.344,0.281 0.254,0.344 0.156,0.156 -0.41,0.344 v 0.563 l 0.156,0.594 0.344,0.094 0.41,-0.625 0.25,-0.406 -0.063,-0.5 0.375,-0.594 0.125,-0.281 v -0.563 l -0.096,-0.438 -0.283,-0.002 z m 14.52,1.986 c -0.05,0.017 -0.115,0.036 -0.119,0.051 -0.02,0.086 -0.563,0.375 -0.563,0.375 -0.113,0 -0.465,0.656 -0.465,0.656 l -0.066,2.063 -0.121,0.75 0.129,0.168 c 0.52,-1.3 0.928,-2.658 1.205,-4.063 z m -34.994,7.486 -0.215,0.152 -0.094,0.031 0.5,0.25 -0.191,-0.434 z m -0.848,0.184 0.002,0.004 0.002,-0.004 z m 0.002,0.004 -0.217,0.496 0.438,-0.094 z m 1.502,4.121 -0.469,0.719 -0.875,0.406 0.5,0.625 -0.75,0.375 -0.473,-0.023 c 3.851,2.907 8.645,4.631 13.842,4.631 6.137,0 11.708,-2.408 15.832,-6.324 l -2.549,0.096 -3.064,0.621 c 0,0 -1.477,0.793 -1.656,0.754 -0.18,-0.043 0.625,-1.031 0.625,-1.031 l -1.439,0.09 -0.904,-0.75 -0.91,0.621 c 0,0 -1.215,0.096 -1.527,0.096 -0.316,0 -0.723,0.563 -0.723,0.563 l -2.469,-0.09 -4.25,0.188 -1.121,0.965 -0.281,0.035 -3.215,-0.223 -2.219,0.223 -0.781,-0.379 0.031,-0.063 c 0,0 -0.652,-1.32 -0.652,-1.5 0,-0.176 -0.5,-0.621 -0.5,-0.621 l -0.002,-0.002 z"
     style="fill:#abd6ec"
     id="path323" /><g
     transform="translate(1,1)"
     id="g325" /><path
     d="m 40.03,7.531 c 3.712,4.084 5.969,9.514 5.969,15.469 0,12.703 -10.297,23 -23,23 C 17.045,46 11.615,43.744 7.53,40.031 11.708,44.322 17.54,47 23.999,47 c 12.703,0 23,-10.298 23,-23 0,-6.462 -2.677,-12.291 -6.969,-16.469 z"
     style="opacity:0.1"
     id="path327" /></g></svg>
